<svg version="1.1" id="Layer_1" xmlns="http://www.w3.org/2000/svg" xmlns:xlink="http://www.w3.org/1999/xlink" x="0px" y="0px"
	 width="100%" viewBox="0 0 705 318" enable-background="new 0 0 705 318" xml:space="preserve">
<path fill="#FEFEFF" opacity="1.000000" stroke="none" 
	d="
M438.000000,319.000000 
	C292.035522,319.000000 146.571060,319.000000 1.053297,319.000000 
	C1.053297,213.061447 1.053297,107.122841 1.053297,1.092125 
	C235.881180,1.092125 470.762390,1.092125 705.821777,1.092125 
	C705.821777,106.999763 705.821777,212.999847 705.821777,319.000000 
	C616.789490,319.000000 527.644714,319.000000 438.000000,319.000000 
M589.500000,285.110657 
	C611.574890,285.110657 633.649780,285.110657 655.657043,285.110657 
	C655.657043,199.425919 655.657043,114.529640 655.657043,29.656185 
	C568.261414,29.656185 481.210205,29.656185 394.230408,29.656185 
	C394.230408,114.939529 394.230408,199.845627 394.230408,285.110779 
	C459.231628,285.110779 523.865845,285.110779 589.500000,285.110657 
M242.311157,250.991837 
	C223.589645,260.870148 204.545364,255.408478 198.160278,236.900421 
	C192.227615,219.703812 192.158600,201.718292 199.226562,184.626770 
	C203.728271,173.740891 213.278839,169.242691 224.827042,168.614975 
	C236.403458,167.985703 245.264786,172.273697 250.946304,182.533417 
	C252.369675,185.103729 253.491058,187.841278 254.844910,190.699768 
	C261.390564,188.436096 267.736938,186.241333 274.085907,184.045685 
	C270.127258,167.825211 260.868317,157.041061 246.104584,151.041260 
	C236.912827,147.305862 227.246948,146.657501 217.593674,148.010376 
	C196.079056,151.025620 180.329803,161.947113 173.099258,183.018921 
	C167.069412,200.591476 166.848938,218.708740 170.630707,236.747009 
	C178.855972,275.980072 223.132935,290.183655 252.894485,263.317566 
	C253.769775,262.527405 254.760223,261.864807 256.441132,260.569061 
	C256.441132,265.694702 256.441132,269.802124 256.441132,274.079468 
	C263.219177,274.079468 269.583832,274.079468 275.829834,274.079468 
	C275.829834,252.820312 275.829834,231.949524 275.829834,211.231979 
	C258.305786,211.231979 241.242905,211.231979 224.239716,211.231979 
	C224.239716,217.512421 224.239716,223.403641 224.239716,229.807297 
	C235.008072,229.807297 245.416428,229.807297 255.848557,229.807297 
	C255.096207,238.635910 251.270401,244.648376 242.311157,250.991837 
M334.520508,171.708344 
	C350.966919,171.708344 367.413330,171.708344 384.183441,171.708344 
	C384.183441,164.270706 384.183441,157.369156 384.183441,150.281479 
	C356.348999,150.281479 328.799438,150.281479 301.010315,150.281479 
	C301.010315,191.694504 301.010315,232.781570 301.010315,274.051056 
	C328.863770,274.051056 356.549622,274.051056 384.181427,274.051056 
	C384.181427,266.858917 384.181427,260.083923 384.181427,252.775406 
	C364.604279,252.775406 345.350311,252.775406 325.864990,252.775406 
	C325.864990,240.857635 325.864990,229.484314 325.864990,217.425201 
	C337.907562,217.425201 349.608795,217.425201 361.212524,217.425201 
	C361.212524,210.971649 361.212524,205.214081 361.212524,198.938934 
	C349.259399,198.938934 337.669312,198.938934 325.842712,198.938934 
	C325.842712,189.689362 325.842712,180.970688 325.842712,171.708145 
	C328.618713,171.708145 331.073242,171.708145 334.520508,171.708344 
M137.896088,198.538666 
	C133.004578,183.518280 128.043152,168.519958 123.285461,153.457306 
	C122.420464,150.718781 121.088005,149.807083 118.303619,149.902145 
	C112.811401,150.089630 107.280121,150.299683 101.818230,149.851547 
	C97.186607,149.471558 95.240005,151.050659 93.817368,155.528259 
	C82.689178,190.552948 71.252892,225.479691 59.928493,260.442108 
	C58.473152,264.935272 57.114395,269.459717 55.558033,274.460907 
	C62.813862,274.460907 69.148117,274.219604 75.451866,274.553802 
	C79.077713,274.746033 80.272873,273.202148 81.207397,270.046448 
	C83.655701,261.778992 86.472641,253.620728 89.198662,245.246948 
	C100.975182,245.246948 112.465965,245.430588 123.945175,245.146561 
	C127.922119,245.048172 129.403381,246.600967 130.438629,250.153961 
	C132.802750,258.267700 135.590347,266.258087 138.147888,274.120178 
	C146.343735,274.120178 154.084686,274.120178 162.525360,274.120178 
	C154.261719,248.841583 146.165955,224.076584 137.896088,198.538666 
z"/>
<path fill="#3A4697" opacity="1.000000" stroke="none" 
	d="
M589.000000,285.110718 
	C523.865845,285.110779 459.231628,285.110779 394.230408,285.110779 
	C394.230408,199.845627 394.230408,114.939529 394.230408,29.656185 
	C481.210205,29.656185 568.261414,29.656185 655.657043,29.656185 
	C655.657043,114.529640 655.657043,199.425919 655.657043,285.110657 
	C633.649780,285.110657 611.574890,285.110657 589.000000,285.110718 
M409.153778,234.546768 
	C409.153778,247.622986 409.153778,260.699219 409.153778,273.644653 
	C485.882874,273.644653 561.744934,273.644653 637.927612,273.644653 
	C637.927612,262.735474 638.056030,252.254395 637.787476,241.783524 
	C637.747681,240.234985 636.148987,238.289642 634.734741,237.279648 
	C617.392395,224.894440 599.905823,212.711212 582.572266,200.313843 
	C579.277649,197.957413 576.054016,196.767639 571.959106,197.201462 
	C568.221375,197.597443 564.408508,197.285385 560.043823,197.285385 
	C560.043823,195.015503 560.043823,193.229874 560.043823,191.444260 
	C560.043823,174.284088 559.308472,157.081299 560.299500,139.978546 
	C560.972717,128.359879 558.592041,119.255089 548.463806,112.866020 
	C546.939209,111.904266 545.576599,110.565300 544.414368,109.171295 
	C540.350586,104.297089 535.733215,101.762222 529.373779,104.830719 
	C528.546570,105.229874 527.420532,105.009575 525.650696,105.128967 
	C525.650696,98.158554 525.650696,91.344833 525.650696,84.531113 
	C525.162964,84.492584 524.675171,84.454063 524.187439,84.415535 
	C523.952698,85.534424 523.538940,86.649574 523.515564,87.772858 
	C523.432373,91.769630 523.091797,95.817665 523.581177,99.755272 
	C524.181274,104.584274 522.202454,106.967422 517.718811,107.676964 
	C513.851929,108.288895 512.855530,110.439926 512.888000,114.254654 
	C513.072510,135.911560 512.803040,157.573380 513.115540,179.227341 
	C513.182678,183.879074 511.359406,185.020203 507.407104,185.815720 
	C483.096771,190.708862 458.815796,195.751160 434.554016,200.880692 
	C426.204102,202.646042 426.242035,202.825394 426.241516,211.733948 
	C426.241089,219.254272 426.241089,219.254288 419.205963,220.894501 
	C409.153564,223.238174 409.153564,223.238159 409.153778,234.546768 
z"/>
<path fill="#3C4898" opacity="1.000000" stroke="none" 
	d="
M242.615936,250.784302 
	C251.270401,244.648376 255.096207,238.635910 255.848557,229.807297 
	C245.416428,229.807297 235.008072,229.807297 224.239716,229.807297 
	C224.239716,223.403641 224.239716,217.512421 224.239716,211.231979 
	C241.242905,211.231979 258.305786,211.231979 275.829834,211.231979 
	C275.829834,231.949524 275.829834,252.820312 275.829834,274.079468 
	C269.583832,274.079468 263.219177,274.079468 256.441132,274.079468 
	C256.441132,269.802124 256.441132,265.694702 256.441132,260.569061 
	C254.760223,261.864807 253.769775,262.527405 252.894485,263.317566 
	C223.132935,290.183655 178.855972,275.980072 170.630707,236.747009 
	C166.848938,218.708740 167.069412,200.591476 173.099258,183.018921 
	C180.329803,161.947113 196.079056,151.025620 217.593674,148.010376 
	C227.246948,146.657501 236.912827,147.305862 246.104584,151.041260 
	C260.868317,157.041061 270.127258,167.825211 274.085907,184.045685 
	C267.736938,186.241333 261.390564,188.436096 254.844910,190.699768 
	C253.491058,187.841278 252.369675,185.103729 250.946304,182.533417 
	C245.264786,172.273697 236.403458,167.985703 224.827042,168.614975 
	C213.278839,169.242691 203.728271,173.740891 199.226562,184.626770 
	C192.158600,201.718292 192.227615,219.703812 198.160278,236.900421 
	C204.545364,255.408478 223.589645,260.870148 242.615936,250.784302 
z"/>
<path fill="#3C4898" opacity="1.000000" stroke="none" 
	d="
M334.024139,171.708252 
	C331.073242,171.708145 328.618713,171.708145 325.842712,171.708145 
	C325.842712,180.970688 325.842712,189.689362 325.842712,198.938934 
	C337.669312,198.938934 349.259399,198.938934 361.212524,198.938934 
	C361.212524,205.214081 361.212524,210.971649 361.212524,217.425201 
	C349.608795,217.425201 337.907562,217.425201 325.864990,217.425201 
	C325.864990,229.484314 325.864990,240.857635 325.864990,252.775406 
	C345.350311,252.775406 364.604279,252.775406 384.181427,252.775406 
	C384.181427,260.083923 384.181427,266.858917 384.181427,274.051056 
	C356.549622,274.051056 328.863770,274.051056 301.010315,274.051056 
	C301.010315,232.781570 301.010315,191.694504 301.010315,150.281479 
	C328.799438,150.281479 356.348999,150.281479 384.183441,150.281479 
	C384.183441,157.369156 384.183441,164.270706 384.183441,171.708344 
	C367.413330,171.708344 350.966919,171.708344 334.024139,171.708252 
z"/>
<path fill="#3C4797" opacity="1.000000" stroke="none" 
	d="
M137.983154,198.925140 
	C146.165955,224.076584 154.261719,248.841583 162.525360,274.120178 
	C154.084686,274.120178 146.343735,274.120178 138.147888,274.120178 
	C135.590347,266.258087 132.802750,258.267700 130.438629,250.153961 
	C129.403381,246.600967 127.922119,245.048172 123.945175,245.146561 
	C112.465965,245.430588 100.975182,245.246948 89.198662,245.246948 
	C86.472641,253.620728 83.655701,261.778992 81.207397,270.046448 
	C80.272873,273.202148 79.077713,274.746033 75.451866,274.553802 
	C69.148117,274.219604 62.813862,274.460907 55.558033,274.460907 
	C57.114395,269.459717 58.473152,264.935272 59.928493,260.442108 
	C71.252892,225.479691 82.689178,190.552948 93.817368,155.528259 
	C95.240005,151.050659 97.186607,149.471558 101.818230,149.851547 
	C107.280121,150.299683 112.811401,150.089630 118.303619,149.902145 
	C121.088005,149.807083 122.420464,150.718781 123.285461,153.457306 
	C128.043152,168.519958 133.004578,183.518280 137.983154,198.925140 
M97.748848,218.179657 
	C96.858437,220.949738 95.968018,223.719818 94.959953,226.855881 
	C104.395813,226.855881 113.157677,226.855881 122.780083,226.855881 
	C118.234810,212.768188 113.840614,199.148743 109.446419,185.529312 
	C109.104713,185.529831 108.763016,185.530365 108.421310,185.530899 
	C104.927986,196.158478 101.434662,206.786072 97.748848,218.179657 
z"/>
<path fill="#F7F7F9" opacity="1.000000" stroke="none" 
	d="
M409.153839,234.057556 
	C409.153564,223.238159 409.153564,223.238174 419.205963,220.894501 
	C426.241089,219.254288 426.241089,219.254272 426.241516,211.733948 
	C426.242035,202.825394 426.204102,202.646042 434.554016,200.880692 
	C458.815796,195.751160 483.096771,190.708862 507.407104,185.815720 
	C511.359406,185.020203 513.182678,183.879074 513.115540,179.227341 
	C512.803040,157.573380 513.072510,135.911560 512.888000,114.254654 
	C512.855530,110.439926 513.851929,108.288895 517.718811,107.676964 
	C522.202454,106.967422 524.181274,104.584274 523.581177,99.755272 
	C523.091797,95.817665 523.432373,91.769630 523.515564,87.772858 
	C523.538940,86.649574 523.952698,85.534424 524.187439,84.415535 
	C524.675171,84.454063 525.162964,84.492584 525.650696,84.531113 
	C525.650696,91.344833 525.650696,98.158554 525.650696,105.128967 
	C527.420532,105.009575 528.546570,105.229874 529.373779,104.830719 
	C535.733215,101.762222 540.350586,104.297089 544.414368,109.171295 
	C545.576599,110.565300 546.939209,111.904266 548.463806,112.866020 
	C558.592041,119.255089 560.972717,128.359879 560.299500,139.978546 
	C559.308472,157.081299 560.043823,174.284088 560.043823,191.444260 
	C560.043823,193.229874 560.043823,195.015503 560.043823,197.285385 
	C564.408508,197.285385 568.221375,197.597443 571.959106,197.201462 
	C576.054016,196.767639 579.277649,197.957413 582.572266,200.313843 
	C599.905823,212.711212 617.392395,224.894440 634.734741,237.279648 
	C636.148987,238.289642 637.747681,240.234985 637.787476,241.783524 
	C638.056030,252.254395 637.927612,262.735474 637.927612,273.644653 
	C561.744934,273.644653 485.882874,273.644653 409.153778,273.644653 
	C409.153778,260.699219 409.153778,247.622986 409.153839,234.057556 
M489.502869,264.981995 
	C490.428101,266.348969 491.353333,267.715942 492.278534,269.082916 
	C493.227234,267.728271 494.582001,266.500854 495.053253,264.996643 
	C496.926392,259.017578 498.523743,252.952087 500.223297,246.918625 
	C500.612671,246.987076 501.002014,247.055527 501.391388,247.123978 
	C501.391388,254.366058 501.391388,261.608124 501.391388,269.161804 
	C503.488647,269.045410 505.065765,268.957886 506.719513,268.866089 
	C506.719513,258.723816 506.719513,248.972778 506.719513,239.065216 
	C505.633911,238.965134 504.821838,238.937027 504.025757,238.809219 
	C499.246857,238.042053 496.188904,239.179733 495.622131,244.804901 
	C495.260223,248.396561 493.693268,251.866791 492.360626,256.441833 
	C491.184204,252.329514 490.227173,249.330475 489.472961,246.281265 
	C487.385620,237.842056 487.196747,237.696442 478.179016,239.481674 
	C478.179016,249.181366 478.179016,258.919373 478.179016,269.090393 
	C480.197540,268.995331 481.885223,268.915833 484.077271,268.812592 
	C484.077271,261.483917 484.077271,254.719360 484.077271,247.954788 
	C484.348389,247.940201 484.619537,247.925598 484.890656,247.910995 
	C486.350525,253.339523 487.810364,258.768036 489.502869,264.981995 
M452.223724,239.808350 
	C452.223724,249.399582 452.223724,258.990814 452.223724,268.863373 
	C459.143280,268.863373 465.692841,268.863373 472.311584,268.863373 
	C473.490509,265.419067 472.959991,263.575409 468.981384,263.799744 
	C465.710358,263.984192 462.420654,263.837372 458.825195,263.837372 
	C458.825195,260.851929 458.825195,258.470123 458.825195,255.840698 
	C461.674866,255.598694 464.231598,255.381561 467.145721,255.134079 
	C467.000092,253.402252 466.884766,252.030594 466.764038,250.594711 
	C463.902161,250.417679 461.467651,250.267090 459.087402,250.119873 
	C457.674774,245.828583 458.648834,243.733704 463.232483,244.193863 
	C465.042908,244.375626 466.896179,244.104553 468.713715,244.246902 
	C472.825562,244.568985 473.661133,242.753845 472.250488,239.080170 
	C465.720795,239.080170 459.279358,239.080170 452.223724,239.808350 
M438.811096,238.321365 
	C433.611206,237.355148 429.198303,238.842743 425.869446,242.912506 
	C421.749298,247.949661 421.551331,259.339264 425.291504,264.681152 
	C430.074707,271.512787 441.621490,271.513306 445.708649,264.524750 
	C446.408356,263.328339 445.872833,261.409576 445.907928,259.824493 
	C444.171875,260.084869 442.302765,260.029510 440.735260,260.689941 
	C438.991455,261.424652 437.536133,263.660126 435.929932,263.686249 
	C434.163361,263.715027 431.767700,262.402466 430.702942,260.916840 
	C428.013275,257.164001 428.373413,248.931427 431.367889,245.798309 
	C432.642975,244.464218 435.277069,243.363510 436.935638,243.738739 
	C438.885742,244.179916 440.447083,246.339294 442.424683,247.956039 
	C443.731903,247.504044 445.240662,246.982361 448.626251,245.811737 
	C444.896332,242.819565 442.234161,240.683975 438.811096,238.321365 
z"/>
<path fill="#F9F9FC" opacity="1.000000" stroke="none" 
	d="
M97.845093,217.796661 
	C101.434662,206.786072 104.927986,196.158478 108.421310,185.530899 
	C108.763016,185.530365 109.104713,185.529831 109.446419,185.529312 
	C113.840614,199.148743 118.234810,212.768188 122.780083,226.855881 
	C113.157677,226.855881 104.395813,226.855881 94.959953,226.855881 
	C95.968018,223.719818 96.858437,220.949738 97.845093,217.796661 
z"/>
<path fill="#434E9B" opacity="1.000000" stroke="none" 
	d="
M489.386536,264.589294 
	C487.810364,258.768036 486.350525,253.339523 484.890656,247.910995 
	C484.619537,247.925598 484.348389,247.940201 484.077271,247.954788 
	C484.077271,254.719360 484.077271,261.483917 484.077271,268.812592 
	C481.885223,268.915833 480.197540,268.995331 478.179016,269.090393 
	C478.179016,258.919373 478.179016,249.181366 478.179016,239.481674 
	C487.196747,237.696442 487.385620,237.842056 489.472961,246.281265 
	C490.227173,249.330475 491.184204,252.329514 492.360626,256.441833 
	C493.693268,251.866791 495.260223,248.396561 495.622131,244.804901 
	C496.188904,239.179733 499.246857,238.042053 504.025757,238.809219 
	C504.821838,238.937027 505.633911,238.965134 506.719513,239.065216 
	C506.719513,248.972778 506.719513,258.723816 506.719513,268.866089 
	C505.065765,268.957886 503.488647,269.045410 501.391388,269.161804 
	C501.391388,261.608124 501.391388,254.366058 501.391388,247.123978 
	C501.002014,247.055527 500.612671,246.987076 500.223297,246.918625 
	C498.523743,252.952087 496.926392,259.017578 495.053253,264.996643 
	C494.582001,266.500854 493.227234,267.728271 492.278564,269.082886 
	C491.353333,267.715942 490.428101,266.348969 489.386536,264.589294 
z"/>
<path fill="#45509C" opacity="1.000000" stroke="none" 
	d="
M452.530823,239.444260 
	C459.279358,239.080170 465.720795,239.080170 472.250488,239.080170 
	C473.661133,242.753845 472.825562,244.568985 468.713715,244.246902 
	C466.896179,244.104553 465.042908,244.375626 463.232483,244.193863 
	C458.648834,243.733704 457.674774,245.828583 459.087402,250.119873 
	C461.467651,250.267090 463.902161,250.417679 466.764038,250.594711 
	C466.884766,252.030594 467.000092,253.402252 467.145721,255.134079 
	C464.231598,255.381561 461.674866,255.598694 458.825195,255.840698 
	C458.825195,258.470123 458.825195,260.851929 458.825195,263.837372 
	C462.420654,263.837372 465.710358,263.984192 468.981384,263.799744 
	C472.959991,263.575409 473.490509,265.419067 472.311584,268.863373 
	C465.692841,268.863373 459.143280,268.863373 452.223724,268.863373 
	C452.223724,258.990814 452.223724,249.399582 452.530823,239.444260 
z"/>
<path fill="#47529D" opacity="1.000000" stroke="none" 
	d="
M439.191559,238.434875 
	C442.234161,240.683975 444.896332,242.819565 448.626251,245.811737 
	C445.240662,246.982361 443.731903,247.504044 442.424683,247.956039 
	C440.447083,246.339294 438.885742,244.179916 436.935638,243.738739 
	C435.277069,243.363510 432.642975,244.464218 431.367889,245.798309 
	C428.373413,248.931427 428.013275,257.164001 430.702942,260.916840 
	C431.767700,262.402466 434.163361,263.715027 435.929932,263.686249 
	C437.536133,263.660126 438.991455,261.424652 440.735260,260.689941 
	C442.302765,260.029510 444.171875,260.084869 445.907928,259.824493 
	C445.872833,261.409576 446.408356,263.328339 445.708649,264.524750 
	C441.621490,271.513306 430.074707,271.512787 425.291504,264.681152 
	C421.551331,259.339264 421.749298,247.949661 425.869446,242.912506 
	C429.198303,238.842743 433.611206,237.355148 439.191559,238.434875 
z"/>
</svg>